# File created by Blade
# Date/Time:  Thu Sep 25 19:26:26 2014
# Frame Rate: 120.000 fps
#------------------------------------------------------
:FULLY-SPECIFIED
:DEGREES
863
root 1.242036 31.479955 -13.029725 107.195950 32.320787 9.374633
Spine 37.253669 1.387285 -1.821259
Head 2.318018 -15.938949 -18.245753
LeftShoulder 10.488681 -37.945775 38.223165
LeftArm 28.106961 -25.145745 -35.951091
LeftForeArm 39.144691 -0.000000 51.318182
LeftHand -37.339308 -0.000000 51.371374
LeftHandThumb1 -26.253704 0.000000 33.147579
RightShoulder -0.363812 54.304240 -52.758735
RightArm 44.075036 2.417994 37.442827
RightForeArm -51.269638 0.000000 50.319577
RightHand -11.369644 -0.000000 -30.025386
RightHandThumb1 -24.326973 -0.000000 -32.862282
LeftUpLeg -113.928378 3.064024 7.660288
LeftLeg -4.643241 -0.000000 0.000000
LeftFoot 10.440644 -2.436086 -26.982138
LeftToeBase 9.682773 -0.000000 -0.000000
RightUpLeg -106.222666 -22.270994 35.340829
RightLeg -1.414129 -0.000000 0.000000
RightFoot 1.495469 -21.932156 19.614332
RightToeBase 4.898190 -0.000000 -0.000000
864
root 1.228642 31.483776 -12.992100 107.332446 32.552541 9.383864
Spine 37.294136 1.440363 -2.059998
Head 2.374448 -15.966309 -18.412771
LeftShoulder 10.616207 -38.212000 38.095559
LeftArm 28.288472 -24.777843 -36.056967
LeftForeArm 38.992006 0.000000 50.944309
LeftHand -37.378826 0.000000 51.320953
LeftHandThumb1 -26.253704 0.000000 33.147579
RightShoulder -0.399991 54.664452 -52.801092
RightArm 44.274163 2.243728 37.531862
RightForeArm -50.986198 0.000000 49.499768
RightHand -11.544652 -0.000000 -29.118677
RightHandThumb1 -24.326973 -0.000000 -32.862282
LeftUpLeg -114.019964 3.135368 7.723253
LeftLeg -4.647457 -0.000000 0.000000
LeftFoot 10.467143 -2.472756 -26.906107
LeftToeBase 10.031990 -0.000000 -0.000000
RightUpLeg -106.352494 -22.071796 35.742672
RightLeg -1.241849 -0.000000 0.000000
RightFoot 1.371624 -21.768373 19.517309
RightToeBase 4.927434 -0.000000 -0.000000
865
root 1.211204 31.490028 -12.952006 107.431676 32.753234 9.260156
Spine 37.325010 1.640462 -2.384991
Head 2.261647 -16.018640 -18.435279
LeftShoulder 10.720887 -38.707823 38.076408
LeftArm 28.327653 -24.313905 -36.247786
LeftForeArm 38.475640 0.000000 50.618368
LeftHand -37.406159 -0.000000 52.008091
LeftHandThumb1 -26.253704 0.000000 33.147579
RightShoulder -0.546573 54.922148 -52.836583
RightArm 44.592118 2.075126 37.514573
RightForeArm -50.318446 -0.000000 48.608498
RightHand -11.531902 -0.000000 -28.784743
RightHandThumb1 -24.326973 -0.000000 -32.862282
LeftUpLeg -114.141853 3.270327 7.668605
LeftLeg -4.630868 -0.000000 0.000000
LeftFoot 10.421459 -2.579105 -26.857832
LeftToeBase 9.826389 -0.000000 -0.000000
RightUpLeg -106.121707 -21.905574 35.604136
RightLeg -1.380943 -0.000000 0.000000
RightFoot 1.280649 -21.993248 19.784791
RightToeBase 4.745932 -0.000000 -0.000000
866
root 1.205228 31.494595 -12.916804 107.517353 32.883466 9.245361
Spine 37.446958 1.683212 -2.718052
Head 2.318682 -16.013642 -18.630059
LeftShoulder 10.867784 -39.225335 38.010341
LeftArm 28.279650 -23.936897 -36.444128
LeftForeArm 38.570963 0.000000 50.337861
LeftHand -37.504621 -0.000000 52.188368
LeftHandThumb1 -26.253704 0.000000 33.147579
RightShoulder -0.581908 55.423916 -52.897649
RightArm 44.609015 1.812499 37.580290
RightForeArm -49.865354 -0.000000 47.798663
RightHand -11.285003 -0.000000 -28.481677
RightHandThumb1 -24.326973 -0.000000 -32.862282
LeftUpLeg -114.196328 3.297137 7.605672
LeftLeg -4.633438 -0.000000 0.000000
LeftFoot 10.568749 -2.787211 -26.988031
LeftToeBase 9.509802 -0.000000 -0.000000
RightUpLeg -106.003743 -21.858788 35.538718
RightLeg -1.407393 -0.000000 0.000000
RightFoot 1.158851 -22.107518 19.915605
RightToeBase 4.824251 -0.000000 -0.000000
867
root 1.196407 31.496474 -12.881055 107.596501 33.094586 9.238236
Spine 37.567323 1.712387 -2.929182
Head 2.479694 -15.996186 -18.985529
LeftShoulder 11.041057 -39.504650 37.840335
LeftArm 28.385990 -23.681449 -36.560235
LeftForeArm 38.508575 0.000000 50.048173
LeftHand -37.553738 -0.000000 52.898253
LeftHandThumb1 -26.253704 0.000000 33.147579
RightShoulder -0.560846 55.869570 -52.963765
RightArm 44.612917 1.589895 37.656088
RightForeArm -49.646653 -0.000000 46.969225
RightHand -11.128119 -0.000000 -28.494701
RightHandThumb1 -24.326973 -0.000000 -32.862282
LeftUpLeg -114.255230 3.343085 7.603984
LeftLeg -4.663562 -0.000000 0.000000
LeftFoot 10.618621 -2.920065 -27.002229
LeftToeBase 9.775035 -0.000000 -0.000000
RightUpLeg -105.924225 -21.765982 35.665970
RightLeg -1.392078 -0.000000 0.000000
RightFoot 1.034552 -22.143669 19.862652
RightToeBase 4.988565 -0.000000 -0.000000
868
root 1.194548 31.499289 -12.851068 107.720842 33.269311 9.341459
Spine 37.726001 1.618772 -3.105715
Head 2.589715 -16.007801 -19.414267
LeftShoulder 11.171421 -39.810047 37.648204
LeftArm 28.508661 -23.406193 -36.687676
LeftForeArm 38.487172 -0.000000 49.871404
LeftHand -37.778478 -0.000000 53.255250
LeftHandThumb1 -26.253704 0.000000 33.147579
RightShoulder -0.460940 56.310371 -53.005540
RightArm 44.524384 1.408506 37.651169
RightForeArm -49.488308 -0.000000 46.304829
RightHand -11.088922 -0.000000 -28.258122
RightHandThumb1 -24.326973 -0.000000 -32.862282
LeftUpLeg -114.308042 3.275822 7.642601
LeftLeg -4.658194 -0.000000 0.000000
LeftFoot 10.685015 -2.855148 -27.072807
LeftToeBase 9.299074 -0.000000 -0.000000
RightUpLeg -105.937237 -21.778766 35.810955
RightLeg -1.315889 -0.000000 0.000000
RightFoot 0.876990 -22.141401 19.962337
RightToeBase 5.000600 -0.000000 -0.000000
869
root 1.185073 31.504492 -12.820331 107.835532 33.446132 9.343574
Spine 37.833908 1.604467 -3.338750
Head 2.672262 -15.944311 -19.764578
LeftShoulder 11.217157 -40.078663 37.556787
LeftArm 28.640956 -23.093774 -36.838228
LeftForeArm 38.349404 -0.000000 49.681049
LeftHand -37.646294 0.000000 53.485837
LeftHandThumb1 -26.253704 0.000000 33.147579
RightShoulder -0.483115 56.636262 -53.135641
RightArm 44.464214 1.305569 37.834025
RightForeArm -49.482046 0.000000 45.745690
RightHand -11.058555 0.000000 -27.818531
RightHandThumb1 -24.326973 -0.000000 -32.862282
LeftUpLeg -114.416756 3.298564 7.638557
LeftLeg -4.606679 -0.000000 0.000000
LeftFoot 10.705575 -2.965541 -27.101867
LeftToeBase 9.163700 -0.000000 -0.000000
RightUpLeg -105.934630 -21.682226 35.900680
RightLeg -1.234332 -0.000000 0.000000
RightFoot 0.763934 -22.165847 20.101505
RightToeBase 4.823322 -0.000000 -0.000000
870
root 1.168022 31.508776 -12.782938 107.853315 33.629132 9.210306
Spine 37.963162 1.771619 -3.633261
Head 2.782525 -15.910216 -19.998771
LeftShoulder 11.340911 -40.271946 37.396123
LeftArm 28.900748 -22.821938 -36.843560
LeftForeArm 38.108229 -0.000000 49.461221
LeftHand -37.706575 -0.000000 53.723156
LeftHandThumb1 -26.253704 0.000000 33.147579
RightShoulder -0.460537 56.953534 -53.173876
RightArm 44.329925 1.249447 38.042622
RightForeArm -49.617271 -0.000000 45.189857
RightHand -10.979121 -0.000000 -27.713998
RightHandThumb1 -24.326973 -0.000000 -32.862282
LeftUpLeg -114.488149 3.420263 7.541514
LeftLeg -4.583603 -0.000000 0.000000
LeftFoot 10.907866 -3.128870 -26.920758
LeftToeBase 8.454876 -0.000000 -0.000000
RightUpLeg -105.777945 -21.497630 35.874389
RightLeg -1.223809 -0.000000 0.000000
RightFoot 0.665671 -22.297551 19.980290
RightToeBase 4.949656 -0.000000 -0.000000
871
root 1.154966 31.514328 -12.752207 107.949548 33.785892 9.189887
Spine 38.087264 1.789554 -3.911891
Head 2.891623 -15.829848 -20.259764
LeftShoulder 11.343073 -40.467698 37.318375
LeftArm 29.184208 -22.614028 -36.997231
LeftForeArm 38.321702 0.000000 49.260071
LeftHand -37.876828 -0.000000 53.727357
LeftHandThumb1 -26.253704 0.000000 33.147579
RightShoulder -0.319493 57.126875 -53.088494
RightArm 44.259858 1.289114 38.080165
RightForeArm -49.713027 -0.000000 44.764217
RightHand -11.193604 0.000000 -27.472404
RightHandThumb1 -24.326973 -0.000000 -32.862282
LeftUpLeg -114.597202 3.453099 7.514864
LeftLeg -4.491902 -0.000000 0.000000
LeftFoot 10.914831 -3.267184 -26.512447
LeftToeBase 8.305659 -0.000000 -0.000000
RightUpLeg -105.720397 -21.403984 35.880950
RightLeg -1.190932 -0.000000 0.000000
RightFoot 0.550305 -22.372302 20.161469
RightToeBase 4.810613 -0.000000 -0.000000
872
root 1.144594 31.518995 -12.723827 108.039004 33.934236 9.219552
Spine 38.245761 1.772614 -4.115062
Head 3.064349 -15.832730 -20.665527
LeftShoulder 11.459180 -40.667346 37.138377
LeftArm 29.386379 -22.390277 -37.046790
LeftForeArm 38.105096 -0.000000 49.088989
LeftHand -37.694656 0.000000 54.273915
LeftHandThumb1 -26.253704 0.000000 33.147579
RightShoulder -0.244442 57.224869 -53.155655
RightArm 44.146966 1.390082 38.207027
RightForeArm -49.747291 -0.000000 44.363561
RightHand -11.364577 -0.000000 -27.049347
RightHandThumb1 -24.326973 -0.000000 -32.862282
LeftUpLeg -114.672016 3.432700 7.470449
LeftLeg -4.453041 -0.000000 0.000000
LeftFoot 10.996993 -3.304967 -27.097406
LeftToeBase 9.088266 -0.000000 -0.000000
RightUpLeg -105.697352 -21.364798 35.893267
RightLeg -1.087926 -0.000000 0.000000
RightFoot 0.376576 -22.457876 20.103243
RightToeBase 4.983539 -0.000000 -0.000000
